<?xml version="1.0"?>
<svg xmlns="http://www.w3.org/2000/svg" xmlns:xlink="http://www.w3.org/1999/xlink" version="1.1" id="Layer_1" x="0px" y="0px" viewBox="0 0 512 512" style="enable-background:new 0 0 512 512;" xml:space="preserve" width="512px" height="512px"><g><g>
	<g>
		<path d="M439.44,411.595l-77.319-77.318c-9.299-9.298-24.374-9.298-33.672,0l-32.036,32.036    c-62.811-35.428-115.3-87.917-150.728-150.728l34.21-34.21c9.299-9.298,9.299-24.374,0-33.672l-77.319-77.316    c-9.299-9.298-24.374-9.298-33.672,0l-49.374,49.374l0.191,0.191C2.241,134.231-4.924,158.937,3.575,183.288    C56.242,334.211,177.788,455.756,328.71,508.423c23.26,8.117,46.773,1.962,61.305-13.832l0.05,0.05l49.374-49.374    C448.739,435.969,448.739,420.894,439.44,411.595z" data-original="#000000" class="active-path" data-old_color="#000000" fill="#FFFFFF"/>
	</g>
</g><g>
	<g>
		<path d="M260.948,135.95c-9.271,0-16.787,7.516-16.787,16.787c0,9.271,7.515,16.787,16.787,16.787    c44.954,0,81.528,36.573,81.528,81.527c0,9.271,7.516,16.787,16.787,16.787s16.787-7.516,16.787-16.787    C376.05,187.585,324.415,135.95,260.948,135.95z" data-original="#000000" class="active-path" data-old_color="#000000" fill="#FFFFFF"/>
	</g>
</g><g>
	<g>
		<path d="M260.948,67.591c-9.271,0-16.787,7.516-16.787,16.787c0,9.271,7.515,16.787,16.787,16.787    c82.648,0,149.887,67.239,149.887,149.885c0,9.271,7.516,16.787,16.787,16.787c9.271,0,16.787-7.516,16.787-16.787    C444.409,149.89,362.109,67.591,260.948,67.591z" data-original="#000000" class="active-path" data-old_color="#000000" fill="#FFFFFF"/>
	</g>
</g><g>
	<g>
		<path d="M438.467,73.531C391.049,26.114,328.005,0,260.948,0c-9.271,0-16.787,7.516-16.787,16.787    c0,9.271,7.516,16.787,16.787,16.787c119.916,0,217.477,97.559,217.477,217.477c0,9.271,7.516,16.787,16.787,16.787    c9.271,0,16.787-7.516,16.787-16.787C511.999,183.992,485.885,120.948,438.467,73.531z" data-original="#000000" class="active-path" data-old_color="#000000" fill="#FFFFFF"/>
	</g>
</g></g> </svg>
